<?xml version="1.0" encoding="utf-8"?>
<!-- Generator: Adobe Illustrator 16.2.1, SVG Export Plug-In . SVG Version: 6.00 Build 0)  -->
<!DOCTYPE svg PUBLIC "-//W3C//DTD SVG 1.1//EN" "http://www.w3.org/Graphics/SVG/1.1/DTD/svg11.dtd">
<svg version="1.1" id="Layer_1" xmlns="http://www.w3.org/2000/svg" xmlns:xlink="http://www.w3.org/1999/xlink" x="0px" y="0px"
	 width="97.102px" height="97.101px" viewBox="0 0 97.102 97.101" enable-background="new 0 0 97.102 97.101" xml:space="preserve">
<rect x="13.184" y="32.175" fill="#FFFFFF" width="71" height="31"/>
<g>
	<path fill-rule="evenodd" clip-rule="evenodd" fill="#9BD4B5" d="M91.295,52.878l6.142-8.466l-7.608-7.169l2.69-10.106
		l-9.692-3.963L81.68,12.773l-10.447-0.172l-4.845-9.298l-9.814,3.621L48.719,0l-7.854,6.925L31.05,3.304l-4.844,9.298l-10.45,0.172
		L14.61,23.173l-9.692,3.963l2.693,10.106L0,44.412l6.141,8.466l-4.502,9.446L10.447,68L9.666,78.423l10.253,2.105l3.035,10.008
		l10.323-1.737l6.461,8.246l8.98-5.358l8.98,5.358l6.461-8.246l10.322,1.737l3.034-10.008l10.256-2.105L86.989,68l8.808-5.677
		L91.295,52.878z M31.516,54.493c-1.319,1.01-2.628,1.515-3.927,1.515c-0.819,0-1.429-0.145-1.829-0.435
		c-0.4-0.29-0.6-0.725-0.6-1.305c0-0.3,0.035-0.61,0.105-0.93c0.07-0.32,0.205-0.74,0.405-1.26l2.065-4.89
		c0.14-0.36,0.245-0.66,0.314-0.9c0.07-0.24,0.104-0.48,0.104-0.72c0-0.28-0.035-0.49-0.105-0.63s-0.245-0.21-0.525-0.21
		c-0.48,0-1.215,0.73-2.206,2.19c-0.99,1.46-1.885,3.09-2.685,4.89l-1.166,3.33c-0.06,0.16-0.4,0.285-1.021,0.375
		c-0.621,0.09-1.061,0.135-1.321,0.135c-0.24,0-0.721-0.045-1.441-0.135c-0.721-0.09-1.061-0.215-1.021-0.375l2.97-8.97
		c0.14-0.4,0.24-0.71,0.3-0.93c0.06-0.22,0.09-0.41,0.09-0.57c0-0.1-0.025-0.18-0.075-0.24c-0.05-0.06-0.115-0.09-0.195-0.09
		c-0.3,0-0.69,0.275-1.17,0.825s-0.8,0.825-0.96,0.825c-0.16,0-0.32-0.11-0.48-0.33c-0.16-0.22-0.24-0.36-0.24-0.42
		c0-0.36,0.555-1.045,1.666-2.055c1.111-1.01,2.256-1.515,3.437-1.515c0.861,0,1.541,0.235,2.041,0.705
		c0.5,0.47,0.75,1.095,0.75,1.875c0,0.18-0.01,0.34-0.03,0.48s-0.06,0.28-0.12,0.42l-0.409,1.14c0.679-1.18,1.617-2.245,2.815-3.195
		c1.198-0.95,2.366-1.425,3.504-1.425c0.699,0,1.327,0.205,1.887,0.615c0.559,0.41,0.838,1.015,0.838,1.815
		c0,0.4-0.055,0.845-0.165,1.335c-0.11,0.49-0.255,0.935-0.435,1.335l-1.83,4.53c-0.18,0.42-0.31,0.745-0.39,0.975
		s-0.12,0.395-0.12,0.495c0,0.14,0.02,0.235,0.06,0.285c0.04,0.05,0.1,0.075,0.18,0.075c0.42,0,0.855-0.235,1.305-0.705
		c0.45-0.47,0.745-0.705,0.885-0.705c0.16,0,0.32,0.105,0.48,0.315c0.16,0.21,0.24,0.355,0.24,0.435
		C33.494,52.808,32.835,53.482,31.516,54.493z M40.063,53.127c0.281,0.46,0.75,0.69,1.41,0.69c0.781,0,1.51-0.25,2.191-0.75
		c0.68-0.5,1.219-1.03,1.619-1.59c0.1,0,0.17,0.01,0.211,0.03c0.039,0.021,0.084,0.055,0.135,0.105
		c0.049,0.05,0.094,0.095,0.135,0.135c0.08,0.08,0.16,0.185,0.24,0.315s0.1,0.225,0.059,0.285c-0.479,0.98-1.34,1.835-2.58,2.565
		c-1.238,0.729-2.459,1.095-3.658,1.095c-1.422,0-2.596-0.41-3.526-1.23s-1.395-1.84-1.395-3.06c0-2.56,1.025-4.875,3.075-6.945
		c2.049-2.07,4.016-3.105,5.895-3.105c1.32,0,2.25,0.335,2.791,1.005c0.539,0.67,0.809,1.425,0.809,2.265
		c0,1.14-0.674,2.255-2.023,3.345c-1.352,1.09-3.236,1.635-5.656,1.635c-0.061,0.26-0.1,0.515-0.119,0.765
		c-0.021,0.25-0.031,0.485-0.031,0.705C39.643,52.087,39.784,52.667,40.063,53.127z M68.294,51.942c-2.18,2.71-4.1,4.065-5.76,4.065
		c-0.78,0-1.476-0.175-2.085-0.525c-0.61-0.35-1.015-0.875-1.215-1.575c-0.641,0.68-1.306,1.2-1.995,1.56
		c-0.69,0.36-1.436,0.54-2.235,0.54c-1.12,0-1.995-0.325-2.625-0.975s-0.945-1.505-0.945-2.565c0-1.1,0.365-2.35,1.095-3.75
		c0.729-1.4,1.585-2.56,2.564-3.48c-0.14,0.06-0.309,0.115-0.508,0.165c-0.199,0.05-0.399,0.075-0.599,0.075
		c-0.438,0-0.817-0.13-1.137-0.39c-0.318-0.26-0.678-0.39-1.076-0.39c-0.479,0-0.848,0.095-1.107,0.285s-0.389,0.435-0.389,0.735
		c0,0.24,0.207,0.52,0.622,0.84c0.415,0.32,0.624,0.67,0.624,1.05c0,0.44-0.141,0.8-0.42,1.08c-0.28,0.28-0.65,0.42-1.11,0.42
		c-0.34,0-0.68-0.155-1.02-0.465c-0.341-0.31-0.511-0.855-0.511-1.635c0-1.2,0.521-2.39,1.561-3.57c1.04-1.18,2.09-1.77,3.15-1.77
		c0.561,0,1.035,0.08,1.426,0.24c0.39,0.16,0.784,0.24,1.185,0.24c0.42,0,0.85-0.045,1.29-0.135c0.439-0.09,0.72-0.135,0.84-0.135
		c0.14,0,0.255,0.05,0.345,0.15c0.091,0.1,0.136,0.22,0.136,0.36c0,0.18-0.16,0.465-0.48,0.855c-0.32,0.39-0.64,0.805-0.96,1.245
		c-0.36,0.52-0.689,1.195-0.99,2.025c-0.3,0.831-0.449,1.805-0.449,2.925c0,0.78,0.21,1.45,0.63,2.01
		c0.42,0.561,0.989,0.84,1.71,0.84c0.08,0,0.18-0.01,0.3-0.03c0.12-0.02,0.21-0.05,0.27-0.09c-0.02-0.14-0.029-0.275-0.029-0.405
		c0-0.129,0-0.245,0-0.345c0-2.48,0.54-4.725,1.62-6.735c1.079-2.01,2.279-3.015,3.6-3.015c0.6,0,1.075,0.235,1.425,0.705
		s0.525,1.065,0.525,1.785c0,1.101-0.351,2.315-1.05,3.645c-0.7,1.33-1.45,2.525-2.25,3.585c0.26,0.28,0.555,0.5,0.885,0.66
		c0.33,0.16,0.835,0.24,1.515,0.24c1.08,0,1.99-0.39,2.73-1.17c0.739-0.78,1.109-2.01,1.109-3.69c0-0.84-0.21-1.49-0.63-1.95
		s-0.63-0.97-0.63-1.53c0-0.66,0.2-1.205,0.6-1.635c0.4-0.43,0.92-0.645,1.561-0.645c0.66,0,1.185,0.225,1.575,0.675
		c0.39,0.45,0.585,1.095,0.585,1.935C71.564,46.677,70.474,49.232,68.294,51.942z M77.624,55.288c-0.46,0.459-1.011,0.69-1.65,0.69
		s-1.189-0.23-1.649-0.69c-0.46-0.46-0.69-1.01-0.69-1.65c0-0.64,0.23-1.189,0.69-1.65c0.46-0.459,1.01-0.69,1.649-0.69
		s1.19,0.23,1.65,0.69c0.46,0.46,0.689,1.01,0.689,1.65C78.313,54.277,78.084,54.828,77.624,55.288z M82.603,37.527l-4.783,11.79
		c-0.04,0.1-0.115,0.18-0.226,0.24s-0.265,0.09-0.465,0.09c-0.26,0-0.445-0.06-0.555-0.18c-0.11-0.12-0.155-0.27-0.136-0.45
		l0.9-13.08c0.02-0.48,0.23-0.89,0.632-1.23c0.4-0.34,1.032-0.51,1.895-0.51c1.264,0,2.121,0.365,2.572,1.095
		S82.943,36.768,82.603,37.527z"/>
	<path fill-rule="evenodd" clip-rule="evenodd" fill="#9BD4B5" d="M43.784,44.667c0-0.34-0.045-0.595-0.135-0.765
		c-0.09-0.17-0.295-0.255-0.615-0.255c-0.619,0-1.23,0.495-1.83,1.485c-0.6,0.99-0.99,2.105-1.17,3.345
		c1.08,0,1.975-0.425,2.686-1.275C43.428,46.353,43.784,45.507,43.784,44.667z"/>
	<path fill-rule="evenodd" clip-rule="evenodd" fill="#9BD4B5" d="M63.614,45.147c0-0.26-0.07-0.46-0.21-0.6
		c-0.141-0.14-0.3-0.21-0.48-0.21c-0.479,0-0.89,0.31-1.229,0.93s-0.51,1.6-0.51,2.94c0,0.3,0.015,0.575,0.045,0.825
		c0.029,0.25,0.095,0.545,0.194,0.885c0.681-0.84,1.216-1.68,1.605-2.52S63.614,45.808,63.614,45.147z"/>
</g>
</svg>
